<?xml version="1.0" encoding="UTF-8"?>
<svg xmlns="http://www.w3.org/2000/svg" viewBox="0 0 100 100" fill="none" data-glyph="ף" data-group="he-script" data-centerline="true">
  <path id="stroke-1" d="M 50.5 16.700000000000003 L 56 13 L 59.9 12.200000000000003" fill="none" stroke="#334155" stroke-width="2.8" stroke-linecap="round" stroke-linejoin="round"/>
  <path id="stroke-2" d="M 41.1 28.599999999999994 L 46.9 19.799999999999997" fill="none" stroke="#334155" stroke-width="2.8" stroke-linecap="round" stroke-linejoin="round"/>
  <path id="stroke-3" d="M 49.5 32.599999999999994 L 59.6 29.700000000000003 L 64.8 26" fill="none" stroke="#334155" stroke-width="2.8" stroke-linecap="round" stroke-linejoin="round"/>
  <path id="stroke-4" d="M 22.4 43 L 31 38.3" fill="none" stroke="#334155" stroke-width="2.8" stroke-linecap="round" stroke-linejoin="round"/>
  <path id="stroke-5" d="M 33.1 54.4 L 35.9 43.2" fill="none" stroke="#334155" stroke-width="2.8" stroke-linecap="round" stroke-linejoin="round"/>
  <path id="stroke-6" d="M 11.5 59.9 L 13.8 51.6" fill="none" stroke="#334155" stroke-width="2.8" stroke-linecap="round" stroke-linejoin="round"/>
  <path id="stroke-7" d="M 22.9 82 L 27.1 73.4" fill="none" stroke="#334155" stroke-width="2.8" stroke-linecap="round" stroke-linejoin="round"/>
  <path id="stroke-8" d="M 13.5 84.9 L 22.4 82.6" fill="none" stroke="#334155" stroke-width="2.8" stroke-linecap="round" stroke-linejoin="round"/>
  <path id="stroke-9" d="M 20.3 92.4 L 22.7 82.8" fill="none" stroke="#334155" stroke-width="2.8" stroke-linecap="round" stroke-linejoin="round"/>
  <circle cx="50.5" cy="16.700000000000003" r="3" fill="#dc2626" data-stroke-start="1"/><circle cx="59.9" cy="12.200000000000003" r="2" fill="#16a34a" data-stroke-end="1"/>
  <circle cx="41.1" cy="28.599999999999994" r="3" fill="#dc2626" data-stroke-start="2"/><circle cx="46.9" cy="19.799999999999997" r="2" fill="#16a34a" data-stroke-end="2"/>
  <circle cx="49.5" cy="32.599999999999994" r="3" fill="#dc2626" data-stroke-start="3"/><circle cx="64.8" cy="26" r="2" fill="#16a34a" data-stroke-end="3"/>
  <circle cx="22.4" cy="43" r="3" fill="#dc2626" data-stroke-start="4"/><circle cx="31" cy="38.3" r="2" fill="#16a34a" data-stroke-end="4"/>
  <circle cx="33.1" cy="54.4" r="3" fill="#dc2626" data-stroke-start="5"/><circle cx="35.9" cy="43.2" r="2" fill="#16a34a" data-stroke-end="5"/>
  <circle cx="11.5" cy="59.9" r="3" fill="#dc2626" data-stroke-start="6"/><circle cx="13.8" cy="51.6" r="2" fill="#16a34a" data-stroke-end="6"/>
  <circle cx="22.9" cy="82" r="3" fill="#dc2626" data-stroke-start="7"/><circle cx="27.1" cy="73.4" r="2" fill="#16a34a" data-stroke-end="7"/>
  <circle cx="13.5" cy="84.9" r="3" fill="#dc2626" data-stroke-start="8"/><circle cx="22.4" cy="82.6" r="2" fill="#16a34a" data-stroke-end="8"/>
  <circle cx="20.3" cy="92.4" r="3" fill="#dc2626" data-stroke-start="9"/><circle cx="22.7" cy="82.8" r="2" fill="#16a34a" data-stroke-end="9"/>
</svg>
